<?xml version="1.0" encoding="utf-8"?>
<!-- Generator: Adobe Illustrator 18.1.0, SVG Export Plug-In . SVG Version: 6.00 Build 0)  -->
<!DOCTYPE svg PUBLIC "-//W3C//DTD SVG 1.1//EN" "http://www.w3.org/Graphics/SVG/1.1/DTD/svg11.dtd">
<svg version="1.1" id="Layer_1" xmlns="http://www.w3.org/2000/svg" xmlns:xlink="http://www.w3.org/1999/xlink" x="0px" y="0px"
	 viewBox="0 0 850.4 850.4" enable-background="new 0 0 850.4 850.4" xml:space="preserve">
<g>
	<path d="M595.3,311h-59.2l-13.2-22c-7.4-12.4-20.8-19.9-35.2-19.9H362.9c-14.5,0-27.8,7.6-35.3,20l-13.2,22h-59.2
		c-21,0-38,17-38,38v195.3c0,21,17,38,38,38h340c21,0,38-17,38-38V349C633.3,328,616.3,311,595.3,311z M425.3,531.4
		c-46.8,0-84.8-38-84.8-84.8s38-84.8,84.8-84.8s84.8,38,84.8,84.8S472.1,531.4,425.3,531.4z M583.6,380.3
		c-10.9,0-19.7-8.8-19.7-19.7s8.8-19.7,19.7-19.7c10.9,0,19.7,8.8,19.7,19.7S594.5,380.3,583.6,380.3z"/>
	<circle cx="425.3" cy="446.6" r="70.3"/>
</g>
</svg>
